<?xml version="1.0" standalone="no"?>
<!DOCTYPE svg PUBLIC "-//W3C//DTD SVG 20010904//EN"
 "http://www.w3.org/TR/2001/REC-SVG-20010904/DTD/svg10.dtd">
<svg version="1.0" xmlns="http://www.w3.org/2000/svg"
 width="834.000000pt" height="834.000000pt" viewBox="0 0 834.000000 834.000000"
 preserveAspectRatio="xMidYMid meet">
<metadata>
Created by potrace 1.14, written by Peter Selinger 2001-2017
</metadata>
<g transform="translate(0.000000,834.000000) scale(0.100000,-0.100000)"
fill="#000000" stroke="none">
<path d="M5030 7220 c0 -5 -22 -10 -50 -10 -27 0 -50 -4 -50 -10 0 -5 -13 -10
-30 -10 -16 0 -30 -4 -30 -10 0 -5 -13 -10 -30 -10 -16 0 -30 -4 -30 -10 0 -5
-9 -10 -20 -10 -11 0 -20 -4 -20 -10 0 -5 -9 -10 -20 -10 -11 0 -20 -4 -20
-10 0 -5 -9 -10 -20 -10 -11 0 -20 -4 -20 -10 0 -5 -8 -10 -18 -10 -10 0 -24
-9 -32 -20 -8 -11 -20 -20 -27 -20 -17 0 -223 -206 -223 -223 0 -7 -9 -19 -20
-27 -11 -8 -20 -21 -20 -30 0 -9 -9 -22 -20 -30 -11 -8 -20 -22 -20 -32 0 -10
-4 -18 -10 -18 -5 0 -10 -9 -10 -20 0 -11 -4 -20 -10 -20 -5 0 -10 -9 -10 -20
0 -11 -4 -20 -10 -20 -5 0 -10 -13 -10 -30 0 -16 -4 -30 -10 -30 -5 0 -10 -13
-10 -30 0 -16 -4 -30 -10 -30 -5 0 -10 -18 -10 -40 0 -22 -4 -40 -10 -40 -5 0
-10 -18 -10 -40 0 -22 -4 -40 -10 -40 -6 0 -10 -27 -10 -60 0 -33 -4 -60 -10
-60 -7 0 -10 -393 -10 -1160 0 -1105 -1 -1160 -18 -1160 -10 0 -24 -9 -32 -20
-8 -11 -21 -20 -30 -20 -9 0 -22 -9 -30 -20 -8 -11 -21 -20 -30 -20 -9 0 -22
-9 -30 -20 -8 -11 -21 -20 -30 -20 -9 0 -22 -9 -30 -20 -8 -11 -21 -20 -30
-20 -9 0 -22 -9 -30 -20 -8 -11 -21 -20 -30 -20 -9 0 -22 -9 -30 -20 -8 -11
-21 -20 -30 -20 -9 0 -22 -9 -30 -20 -8 -11 -21 -20 -28 -20 -8 0 -27 -13 -42
-30 -15 -16 -34 -30 -42 -30 -7 0 -20 -9 -28 -20 -8 -11 -21 -20 -30 -20 -9 0
-22 -9 -30 -20 -8 -11 -21 -20 -28 -20 -8 0 -27 -13 -42 -30 -15 -16 -33 -30
-40 -30 -7 0 -25 -13 -40 -30 -15 -16 -33 -30 -40 -30 -7 0 -25 -13 -40 -30
-15 -16 -33 -30 -40 -30 -6 0 -29 -18 -50 -40 -21 -22 -44 -40 -50 -40 -6 0
-33 -22 -60 -50 -27 -27 -54 -50 -59 -50 -15 0 -301 -287 -301 -301 0 -6 -13
-24 -30 -39 -16 -15 -30 -35 -30 -44 0 -9 -4 -16 -10 -16 -5 0 -10 -8 -10 -18
0 -10 -9 -24 -20 -32 -11 -8 -20 -22 -20 -32 0 -10 -4 -18 -10 -18 -5 0 -10
-9 -10 -20 0 -11 -4 -20 -10 -20 -5 0 -10 -9 -10 -20 0 -11 -4 -20 -10 -20 -5
0 -10 -9 -10 -20 0 -11 -4 -20 -10 -20 -5 0 -10 -9 -10 -20 0 -11 -4 -20 -10
-20 -5 0 -10 -9 -10 -20 0 -11 -4 -20 -10 -20 -5 0 -10 -13 -10 -30 0 -16 -4
-30 -10 -30 -5 0 -10 -13 -10 -30 0 -16 -4 -30 -10 -30 -5 0 -10 -18 -10 -40
0 -22 -4 -40 -10 -40 -6 0 -10 -27 -10 -60 0 -33 -4 -60 -10 -60 -6 0 -10 -50
-10 -130 0 -80 4 -130 10 -130 6 0 10 -22 10 -50 0 -27 5 -50 10 -50 6 0 10
-13 10 -30 0 -16 5 -30 10 -30 6 0 10 -9 10 -20 0 -11 5 -20 10 -20 6 0 10 -9
10 -20 0 -11 5 -20 10 -20 6 0 10 -9 10 -20 0 -11 5 -20 10 -20 6 0 10 -7 10
-16 0 -8 18 -33 40 -54 22 -21 40 -43 40 -50 0 -14 46 -60 61 -60 6 0 24 -13
39 -30 15 -16 34 -30 42 -30 7 0 20 -9 28 -20 8 -11 22 -20 32 -20 10 0 18 -4
18 -10 0 -5 9 -10 20 -10 11 0 20 -4 20 -10 0 -5 9 -10 20 -10 11 0 20 -4 20
-10 0 -5 9 -10 20 -10 11 0 20 -4 20 -10 0 -5 14 -10 30 -10 17 0 30 -4 30
-10 0 -5 14 -10 30 -10 17 0 30 -4 30 -10 0 -5 14 -10 30 -10 17 0 30 -4 30
-10 0 -5 23 -10 50 -10 28 0 50 -4 50 -10 0 -6 30 -10 70 -10 40 0 70 -4 70
-10 0 -6 90 -10 250 -10 160 0 250 4 250 10 0 6 27 10 60 10 33 0 60 4 60 10
0 6 18 10 40 10 22 0 40 5 40 10 0 6 14 10 30 10 17 0 30 5 30 10 0 6 9 10 20
10 11 0 20 5 20 10 0 6 9 10 20 10 11 0 20 5 20 10 0 6 9 10 20 10 11 0 20 5
20 10 0 6 9 10 20 10 11 0 20 5 20 10 0 6 7 10 16 10 9 0 29 14 44 30 15 17
33 30 39 30 15 0 141 126 141 141 0 6 14 24 30 39 17 15 30 35 30 44 0 9 5 16
10 16 6 0 10 8 10 18 0 10 9 24 20 32 12 8 20 26 20 42 0 15 5 28 10 28 6 0
10 9 10 20 0 11 5 20 10 20 6 0 10 9 10 20 0 11 5 20 10 20 6 0 10 14 10 30 0
17 5 30 10 30 6 0 10 18 10 40 0 22 5 40 10 40 6 0 10 27 10 60 0 33 4 60 10
60 7 0 10 365 10 1075 l0 1076 25 24 c13 14 30 25 37 25 8 0 20 9 28 20 8 11
22 20 32 20 10 0 18 5 18 10 0 6 8 10 18 10 10 0 24 9 32 20 8 11 22 20 32 20
10 0 18 5 18 10 0 6 9 10 20 10 11 0 20 5 20 10 0 6 8 10 18 10 10 0 24 9 32
20 8 11 22 20 32 20 10 0 18 5 18 10 0 6 8 10 18 10 10 0 24 9 32 20 8 11 22
20 32 20 10 0 18 5 18 10 0 6 9 10 20 10 11 0 20 5 20 10 0 6 8 10 18 10 10 0
24 9 32 20 8 11 22 20 32 20 10 0 18 5 18 10 0 6 8 10 18 10 10 0 24 9 32 20
8 11 22 20 32 20 10 0 18 5 18 10 0 6 9 10 20 10 11 0 20 5 20 10 0 6 9 10 20
10 11 0 20 5 20 10 0 6 7 10 15 10 9 0 27 11 40 25 19 18 25 35 25 70 0 38 -3
45 -20 45 -11 0 -20 -4 -20 -10 0 -5 -9 -10 -20 -10 -11 0 -20 -4 -20 -10 0
-5 -8 -10 -18 -10 -10 0 -24 -9 -32 -20 -8 -11 -22 -20 -32 -20 -10 0 -18 -4
-18 -10 0 -5 -9 -10 -20 -10 -11 0 -20 -4 -20 -10 0 -5 -9 -10 -20 -10 -11 0
-20 -4 -20 -10 0 -5 -8 -10 -18 -10 -10 0 -24 -9 -32 -20 -8 -11 -22 -20 -32
-20 -10 0 -18 -4 -18 -10 0 -5 -9 -10 -20 -10 -11 0 -20 -4 -20 -10 0 -5 -8
-10 -18 -10 -10 0 -24 -9 -32 -20 -8 -11 -22 -20 -32 -20 -10 0 -18 -4 -18
-10 0 -5 -9 -10 -20 -10 -11 0 -20 -4 -20 -10 0 -5 -9 -10 -20 -10 -11 0 -20
-4 -20 -10 0 -5 -8 -10 -18 -10 -10 0 -24 -9 -32 -20 -8 -11 -22 -20 -32 -20
-10 0 -18 -4 -18 -10 0 -5 -9 -10 -20 -10 -11 0 -20 -4 -20 -10 0 -5 -8 -10
-18 -10 -10 0 -24 -9 -32 -20 -8 -11 -22 -20 -32 -20 -10 0 -18 -4 -18 -10 0
-5 -13 -10 -30 -10 l-30 0 0 1050 c0 693 3 1050 10 1050 6 0 10 37 10 90 0 53
4 90 10 90 6 0 10 18 10 40 0 22 5 40 10 40 6 0 10 14 10 30 0 17 5 30 10 30
6 0 10 14 10 30 0 17 5 30 10 30 6 0 10 8 10 18 0 10 9 24 20 32 11 8 20 20
20 27 0 19 86 103 105 103 8 0 15 5 15 10 0 6 9 10 20 10 11 0 20 5 20 10 0 6
14 10 30 10 17 0 30 5 30 10 0 6 37 10 90 10 53 0 90 -4 90 -10 0 -5 14 -10
30 -10 17 0 30 -4 30 -10 0 -5 14 -10 30 -10 17 0 30 -4 30 -10 0 -5 9 -10 20
-10 11 0 20 -4 20 -10 0 -5 9 -10 20 -10 11 0 20 -4 20 -10 0 -5 8 -10 18 -10
10 0 24 -9 32 -20 8 -11 22 -20 32 -20 10 0 18 -4 18 -10 0 -5 8 -10 18 -10
10 0 24 -9 32 -20 8 -11 22 -20 32 -20 10 0 18 -4 18 -10 0 -5 9 -10 20 -10
11 0 20 -4 20 -10 0 -5 12 -10 26 -10 27 0 54 20 54 40 0 6 18 29 40 50 22 21
40 44 40 50 0 7 14 25 30 40 17 15 30 33 30 40 0 7 14 25 30 40 17 15 30 34
30 42 0 7 9 20 20 28 28 20 25 30 -10 30 -16 0 -30 5 -30 10 0 6 -30 10 -70
10 -40 0 -70 4 -70 10 0 6 -50 10 -130 10 -80 0 -130 4 -130 10 0 6 -107 10
-300 10 -193 0 -300 -4 -300 -10z m-880 -4380 c0 -613 -3 -930 -10 -930 -6 0
-10 -37 -10 -90 0 -53 -4 -90 -10 -90 -5 0 -10 -18 -10 -40 0 -22 -4 -40 -10
-40 -5 0 -10 -13 -10 -30 0 -16 -4 -30 -10 -30 -5 0 -10 -9 -10 -20 0 -11 -4
-20 -10 -20 -5 0 -10 -7 -10 -16 0 -9 -13 -29 -30 -44 -16 -15 -30 -33 -30
-39 0 -16 -66 -81 -82 -81 -8 0 -20 -9 -28 -20 -8 -11 -22 -20 -32 -20 -10 0
-18 -4 -18 -10 0 -5 -9 -10 -20 -10 -11 0 -20 -4 -20 -10 0 -5 -13 -10 -30
-10 -16 0 -30 -4 -30 -10 0 -6 -53 -10 -140 -10 -87 0 -140 4 -140 10 0 6 -22
10 -50 10 -27 0 -50 5 -50 10 0 6 -13 10 -30 10 -16 0 -30 5 -30 10 0 6 -18
10 -40 10 -22 0 -40 5 -40 10 0 6 -9 10 -20 10 -11 0 -20 5 -20 10 0 6 -13 10
-30 10 -16 0 -30 5 -30 10 0 6 -8 10 -18 10 -10 0 -24 9 -32 20 -8 11 -22 20
-32 20 -10 0 -18 5 -18 10 0 6 -8 10 -18 10 -10 0 -24 9 -32 20 -8 11 -20 20
-27 20 -17 0 -183 166 -183 183 0 7 -9 19 -20 27 -11 8 -20 22 -20 32 0 10 -4
18 -10 18 -5 0 -10 9 -10 20 0 11 -4 20 -10 20 -5 0 -10 14 -10 30 0 17 -4 30
-10 30 -5 0 -10 14 -10 30 0 17 -4 30 -10 30 -5 0 -10 23 -10 50 0 28 -4 50
-10 50 -6 0 -10 27 -10 60 0 33 4 60 10 60 6 0 10 30 10 70 0 40 4 70 10 70 6
0 10 14 10 30 0 17 5 30 10 30 6 0 10 14 10 30 0 17 5 30 10 30 6 0 10 14 10
30 0 17 5 30 10 30 6 0 10 9 10 20 0 11 5 20 10 20 6 0 10 9 10 20 0 11 5 20
10 20 6 0 10 9 10 20 0 11 5 20 10 20 6 0 10 8 10 18 0 10 9 24 20 32 11 8 20
21 20 28 0 8 14 27 30 42 17 15 30 33 30 39 0 14 486 501 501 501 5 0 32 23
59 50 27 28 54 50 60 50 7 0 25 14 40 30 15 17 33 30 40 30 7 0 25 14 40 30
15 17 34 30 42 30 7 0 20 9 28 20 8 11 21 20 28 20 8 0 27 14 42 30 15 17 34
30 42 30 7 0 20 9 28 20 8 11 21 20 30 20 9 0 22 9 30 20 8 11 21 20 30 20 9
0 22 9 30 20 8 11 22 20 32 20 10 0 18 5 18 10 0 6 8 10 18 10 10 0 24 9 32
20 8 11 21 20 30 20 9 0 22 9 30 20 8 11 22 20 32 20 17 0 18 -45 18 -930z"/>
</g>
</svg>
